<svg width="594" height="554" viewBox="0 0 594 554" fill="none" xmlns="http://www.w3.org/2000/svg">
<path fill-rule="evenodd" clip-rule="evenodd" d="M480.652 215.889C507.927 300.678 471.851 405.01 403.174 451.801C334.606 498.485 233.439 487.737 172.478 439.208C111.409 390.788 90.5449 304.804 113.908 225.551C137.162 146.19 204.752 73.6679 283.751 69.9767C362.859 66.1769 453.486 131.208 480.652 215.889Z" fill="#FFF8ED"/>
<path fill-rule="evenodd" clip-rule="evenodd" d="M306.884 537.134L326.451 543.407C330.763 544.079 333.942 547.792 333.942 552.155H290.106L290.253 537.146L306.884 537.134Z" fill="black"/>
<path fill-rule="evenodd" clip-rule="evenodd" d="M227.586 536.274L245.534 542.546C249.845 543.218 253.025 546.931 253.025 551.295H209.188L209.337 536.285L227.586 536.274Z" fill="black"/>
<path d="M260.293 166.972C260.67 166.466 261.367 166.339 261.894 166.661L261.991 166.727L306.733 200.175L359.486 206.941C360.053 207.014 360.488 207.472 360.54 208.032L360.545 208.145V220.321C360.545 220.971 360.035 221.499 359.398 221.533L359.285 221.534L298.43 219.175C298.282 219.169 298.136 219.136 298 219.079L297.9 219.03L250.29 193.334C249.7 193.016 249.48 192.279 249.799 191.689C250.098 191.134 250.768 190.906 251.338 191.147L251.443 191.197L298.805 216.759L358.117 219.059V209.213L306.107 202.543C305.941 202.522 305.781 202.466 305.638 202.381L305.535 202.311L260.538 168.671C260.001 168.27 259.89 167.509 260.293 166.972Z" fill="black"/>
<path d="M235.742 245.62L234.549 260.284C234.069 266.238 233.713 271.082 233.416 275.869L233.341 277.077L311.866 276.733L311.787 276.381C309.318 265.46 307.351 255.588 306.279 247.452L306.192 246.779C305.153 238.667 304.398 229.555 304.165 218.255C304.152 217.585 304.683 217.03 305.353 217.016C306.024 217.002 306.579 217.534 306.592 218.205L306.634 220.003C306.897 230.087 307.586 238.386 308.518 245.817L308.6 246.471C309.695 255.077 311.853 265.79 314.57 277.67C314.735 278.394 314.22 279.086 313.496 279.15L313.392 279.155L232.059 279.511C231.359 279.514 230.802 278.926 230.842 278.226L230.954 276.346C231.221 271.963 231.536 267.572 231.947 262.37L233.321 245.432L233.51 242.929C233.779 239.302 233.975 236.226 234.114 233.356L234.137 232.88C234.532 224.446 234.417 217.756 233.685 211.819L233.44 209.936C233.186 208.135 232.821 206.567 230.141 194.888L229.445 191.807C227.771 184.308 226.74 179.001 225.992 173.632L225.853 172.605C224.09 159.186 225.051 149.987 229.802 145.335C233.99 141.214 243.297 137.94 250.764 137.305C251.433 137.247 252.021 137.744 252.077 138.413C252.601 144.673 257.836 149.648 264.042 149.75C270.503 149.861 276.045 144.654 276.433 138.121C276.469 137.524 276.932 137.048 277.515 136.986L277.626 136.979L364.53 135.653L407.88 112.288C408.436 111.987 409.123 112.166 409.466 112.683L409.526 112.784L414.253 121.619C414.52 122.118 414.405 122.73 413.989 123.099L413.895 123.174L369.844 155.069C369.716 155.162 369.571 155.229 369.418 155.266L369.302 155.288L310.407 163.604L310.275 164.421C309.014 172.344 308.058 180.382 307.432 188.565L307.303 190.322C307.052 193.824 306.866 197.339 306.74 200.85C306.716 201.52 306.154 202.044 305.484 202.02C304.814 201.996 304.29 201.433 304.313 200.763C304.441 197.224 304.628 193.68 304.881 190.15C305.548 180.698 306.651 171.439 308.154 162.329C308.234 161.843 308.599 161.458 309.072 161.346L309.183 161.325L368.665 152.926L411.612 121.829L407.959 115.002L365.422 137.931C365.285 138.005 365.135 138.052 364.981 138.069L364.865 138.076L278.745 139.39L278.716 139.597C277.64 146.696 271.475 152.168 264.269 152.18L264.002 152.178C256.99 152.062 251.043 146.806 249.831 139.952L249.813 139.843L249.454 139.888C242.913 140.744 235.256 143.559 231.707 146.871L231.503 147.067C227.437 151.049 226.574 159.829 228.326 172.784L228.397 173.297C229.192 179.007 230.318 184.674 232.223 193.093L234.951 205.05C235.757 208.665 235.773 209.03 236.022 210.952C236.838 217.189 236.975 224.164 236.562 232.993L236.464 234.938C236.296 238.072 236.061 241.497 235.742 245.62Z" fill="black"/>
<path d="M371.099 191.556C374.454 191.556 376.853 194.767 375.945 197.962L375.892 198.136L375.791 198.447L384.446 193.911C387.38 192.374 390.774 194.866 390.244 198.088L390.214 198.25L388.719 205.566C388.676 205.777 388.578 205.972 388.436 206.131L388.345 206.222L376.157 217.264C376.038 217.372 375.899 217.455 375.749 217.509L375.633 217.543L359.622 221.5C358.971 221.66 358.313 221.264 358.152 220.612C358.001 220 358.344 219.381 358.928 219.177L359.04 219.143L374.752 215.26L386.419 204.69L387.835 197.764C388.092 196.509 386.824 195.51 385.679 196.01L385.572 196.061L374.291 201.975C373.36 202.463 372.312 201.623 372.543 200.631L372.572 200.528L373.581 197.392C374.109 195.754 372.936 194.08 371.245 193.988L371.162 193.985L360.312 208.861C359.94 209.37 359.246 209.505 358.713 209.19L358.616 209.125C358.106 208.754 357.971 208.06 358.286 207.527L358.351 207.429L369.566 192.054C369.77 191.776 370.08 191.599 370.419 191.563L370.547 191.556H371.099Z" fill="black"/>
<path d="M426.069 89.6577C428.182 87.963 431.316 88.8006 432.32 91.2827L432.382 91.4429L435.078 98.97C435.174 99.2403 435.172 99.5341 435.073 99.8004L435.026 99.912L429.039 112.173C428.969 112.318 428.87 112.447 428.751 112.552L428.656 112.627L413.785 123.298C413.24 123.689 412.482 123.564 412.091 123.019C411.723 122.506 411.812 121.805 412.278 121.398L412.369 121.325L426.991 110.833L432.619 99.3067L430.096 92.2611C429.739 91.2649 428.539 90.8918 427.684 91.4794L427.587 91.5514L414.624 101.944C414.12 102.348 413.396 102.284 412.97 101.818L412.894 101.726L409.246 96.8643C408.498 95.8664 407.127 95.597 406.063 96.2144L405.916 96.3067L409.537 113.222C409.669 113.84 409.306 114.448 408.717 114.634L408.604 114.664C407.986 114.795 407.378 114.433 407.192 113.844L407.162 113.73L403.37 96.0081C403.274 95.5589 403.44 95.0968 403.792 94.812L403.884 94.744L404.585 94.2762C406.681 92.8786 409.483 93.3124 411.063 95.2465L411.188 95.4068L414.083 99.2654L426.069 89.6577Z" fill="black"/>
<path d="M313.224 276.737C313.85 276.655 314.426 277.066 314.565 277.668L314.586 277.784L331.792 409.424C331.803 409.508 331.805 409.594 331.798 409.679L331.781 409.805L307.786 537.358C307.686 537.894 307.242 538.292 306.709 538.342L306.593 538.348H291.566C290.891 538.348 290.353 537.798 290.353 537.136L290.357 537.024L302.052 408.475L275.909 327.286L261.454 408.964L261.435 409.054L228.752 536.602C228.624 537.103 228.193 537.463 227.686 537.51L227.576 537.514H210.643C209.932 537.514 209.382 536.909 209.432 536.216L209.445 536.106L231.266 402.035L230.839 278.301C230.837 277.671 231.316 277.151 231.932 277.089L232.049 277.084C232.68 277.081 233.2 277.561 233.261 278.176L233.267 278.293L233.694 402.129L233.691 402.229L233.679 402.328L212.069 535.087H226.634L259.071 408.496L274.37 322.049C274.584 320.842 276.223 320.692 276.68 321.775L276.721 321.888L304.44 407.967C304.477 408.083 304.497 408.205 304.498 408.327L304.493 408.449L292.896 535.92H305.586L329.359 409.548L312.178 278.098C312.096 277.472 312.507 276.896 313.109 276.757L313.224 276.737Z" fill="black"/>
<path d="M275.884 128.182C276.505 128.073 277.099 128.457 277.263 129.053L277.289 129.168L278.837 137.983C278.952 138.643 278.511 139.272 277.851 139.388C277.229 139.497 276.635 139.113 276.471 138.516L276.445 138.402L274.898 129.587C274.782 128.926 275.223 128.298 275.884 128.182Z" fill="black"/>
<path d="M252.521 119.14C253.15 119.194 253.626 119.717 253.632 120.336L253.627 120.453L252.076 138.618C252.019 139.287 251.432 139.781 250.763 139.724C250.135 139.671 249.66 139.147 249.653 138.528L249.657 138.412L251.209 120.247C251.263 119.618 251.786 119.142 252.405 119.135L252.521 119.14Z" fill="black"/>
<path d="M294.491 83.9483C295.133 83.7565 295.81 84.1215 296.001 84.764C300.793 100.809 297.661 118.628 288.209 125.569C287.122 126.367 285.968 127.076 284.756 127.702C281.869 129.192 278.788 130.149 275.709 130.685C274.632 130.872 273.63 130.993 272.727 131.062L272.383 131.086C272.008 131.11 271.727 131.119 271.551 131.119C267.323 131.13 263.601 130.213 260.241 128.739C259.627 128.469 259.348 127.753 259.617 127.14C259.887 126.525 260.602 126.246 261.216 126.516C264.156 127.805 267.394 128.628 271.044 128.688L271.544 128.691C271.713 128.691 272.055 128.678 272.543 128.641C273.37 128.578 274.296 128.466 275.294 128.293C278.145 127.797 280.994 126.911 283.642 125.544C284.744 124.976 285.79 124.333 286.772 123.612C295.258 117.381 298.204 100.622 293.675 85.4592C293.483 84.8166 293.848 84.1401 294.491 83.9483Z" fill="black"/>
<path fill-rule="evenodd" clip-rule="evenodd" d="M251.807 94.981C254.438 95.6406 259.737 96.916 263.607 93.046C266.164 90.4879 267.769 86.5265 270.638 85.7787C274.501 84.7711 276.507 87.7566 281.519 88.9867C286.394 90.182 293.757 89.6292 298.12 85.0811C301.996 81.0387 302.454 74.5912 301.113 69.3859C300.012 65.1145 296.698 59.486 293.445 56.507C290.761 54.0501 287.118 52.0503 283.37 52.8596C280.561 53.4658 278.4 55.4825 276.01 56.9327C273.214 58.6298 269.952 59.1259 266.721 59.2942C263.22 59.4763 259.712 59.1874 256.208 59.2586C252.558 59.3339 248.867 59.817 245.511 61.2494C242.434 62.5645 238.263 66.6862 236.863 69.8415C235.194 73.6015 235.418 77.961 234.864 81.8966C234.317 85.7835 232.056 89.3452 230.369 92.889C225.041 104.085 232.259 119.113 243.295 123.662C245.545 124.59 248.128 125.161 250.541 124.582C253.051 123.98 253.789 121.736 253.845 119.355C253.918 116.238 252.958 113.167 251.545 110.388C250.466 108.265 249.125 106.292 247.734 104.364C246.396 102.511 245.078 100.367 246.113 98.0182C247.058 95.8769 249.402 94.6071 251.807 94.981Z" fill="black"/>
<path d="M243.017 277.032C243.647 277.063 244.141 277.57 244.169 278.188V278.305L243.334 295.027C243.323 295.251 243.25 295.466 243.125 295.65L243.044 295.757L233.063 307.403C232.627 307.912 231.861 307.971 231.351 307.535C230.874 307.126 230.792 306.426 231.143 305.921L231.22 305.823L240.93 294.491L241.744 278.184C241.776 277.554 242.282 277.06 242.9 277.032H243.017Z" fill="black"/>
<path fill-rule="evenodd" clip-rule="evenodd" d="M380.66 424.936C384.679 419.449 389.89 416.523 395.337 415.032C396.071 414.831 396.807 415.346 396.867 416.105L397.575 424.881L397.775 424.919C397.953 424.957 398.136 425.001 398.323 425.054L398.607 425.139C399.748 425.501 400.805 426.102 401.708 426.994C402.205 427.485 402.604 428.008 402.923 428.551L403.029 428.74L403.354 428.613C405.277 427.881 408.203 427.106 409.762 426.964L409.932 426.951C412.108 426.81 413.992 427.023 415.11 427.593C415.443 427.762 415.679 428.076 415.75 428.441C416.011 429.774 415.174 433.949 414.534 435.922C413.79 438.205 411.367 442.821 410.047 444.421L409.993 444.485L409.961 444.598C408.902 448.362 408.809 451.622 409.945 456.077L410.062 456.527C410.627 458.635 411.409 460.321 412.637 462.217C413.195 463.078 415.215 465.854 416.297 467.342C416.534 467.667 416.725 467.931 416.847 468.099L417.396 468.879C423.62 477.864 428.024 488.029 430.323 498.72C431.534 504.354 432.185 510.189 432.281 516.133C432.294 516.937 432.278 517.609 432.213 518.776L432.031 521.695C431.998 522.217 431.976 522.635 431.958 523.037L431.925 523.931C431.833 527.301 432.158 529.64 433.111 531.396C433.397 531.925 433.59 532.246 433.862 532.609C434.373 533.288 434.895 533.691 435.385 533.769C436.805 533.994 438.614 532.015 440.619 528.713L440.921 528.208C443.257 524.25 444.71 519.228 445.324 510.313L445.354 509.863C445.495 507.667 445.512 506.223 445.452 504.349L445.376 501.97C445.332 500.144 445.342 498.514 445.425 496.251L445.48 494.906C445.796 487.792 446.073 484.618 446.953 480.213L447.079 479.589C449.745 466.695 455.49 458.658 466.058 456.737C466.716 456.617 467.347 457.053 467.469 457.711C468.071 460.961 466.92 463.342 463.589 467.719L463.338 468.05C462.871 468.663 462.621 468.993 462.426 469.258L461.83 470.096C457.359 476.578 456.327 483.696 456.608 497.485L456.711 502.318C456.76 504.921 456.763 506.495 456.722 508.34L456.701 509.087C456.458 516.588 455.038 524.964 452.513 531.995C449.193 541.244 444.193 547.751 437.405 550.398C433.858 551.781 429.866 552.53 426.1 552.508C421.337 552.479 417.201 552.426 411.243 552.316L393.12 551.95C384.186 551.772 377.801 551.682 371.65 551.665L367.392 551.663C366.553 551.657 366.076 551.59 365.496 551.328C363.71 550.518 363.108 548.207 363.878 546.363C364.41 545.089 365.218 544.282 366.885 543.02C367.987 542.187 368.818 540.985 369.404 539.407C370.817 535.6 370.881 530.875 369.962 525.105L369.803 524.084C368.046 512.517 367.778 501.319 369.142 490.643C369.967 484.187 371.153 478.561 372.882 473.474C372.96 473.246 373.036 473.023 373.115 472.793L374.861 467.785C376.301 463.603 377.023 461.169 377.581 458.44L377.725 457.709C377.941 456.57 378.106 455.466 378.219 454.389C378.492 451.783 378.389 449.595 377.894 445.386L377.512 442.208C377.129 438.877 377.026 437.054 377.158 434.975L377.19 434.525C377.468 430.948 378.538 427.834 380.66 424.936ZM395.236 426.067L394.568 417.797C390.116 419.263 385.911 421.876 382.618 426.37C379.41 430.752 379.037 434.386 380.05 442.987L380.208 444.29C380.772 448.923 380.93 451.343 380.685 454.117L380.634 454.642C380.513 455.789 380.338 456.958 380.11 458.162C379.488 461.43 378.725 464.039 377.037 468.926L375.295 473.92L374.975 474.873C373.414 479.628 372.323 484.906 371.551 490.95C370.177 501.701 370.495 513.013 372.36 524.723L372.443 525.263C373.334 531.168 373.223 536.095 371.679 540.252C370.941 542.241 369.845 543.825 368.35 544.956C367.016 545.966 366.431 546.55 366.119 547.299C365.812 548.033 366.04 548.909 366.498 549.117C366.702 549.209 366.968 549.237 367.603 549.235L369.854 549.234C375.549 549.237 381.247 549.302 388.795 549.439L409.075 549.847C414.12 549.944 417.858 550.004 421.479 550.042L426.115 550.08C429.572 550.1 433.259 549.408 436.523 548.136C447.659 543.794 453.892 526.434 454.295 508.287L454.299 508.07C454.333 506.424 454.329 504.951 454.289 502.652L454.161 496.435C453.946 482.68 455.137 475.367 460.027 468.437C460.172 468.231 460.284 468.073 460.414 467.895L462.086 465.68C464.15 462.91 465.09 461.169 465.175 459.454L465.176 459.408L464.916 459.475C456.621 461.652 451.917 468.569 449.543 479.668L449.457 480.081C448.615 484.154 448.301 486.998 448.013 492.724L447.905 495.014C447.761 498.27 447.749 500.174 447.822 502.597L447.89 504.655C447.941 506.551 447.909 508.1 447.746 510.48C447.107 519.756 445.549 525.144 443.012 529.441C441.984 531.186 441.226 532.333 440.194 533.512C438.523 535.42 436.821 536.455 435.005 536.167C433.772 535.972 432.773 535.202 431.921 534.066C431.558 533.583 431.316 533.18 430.977 532.554C429.73 530.254 429.369 527.439 429.511 523.465C429.53 522.926 429.554 522.426 429.593 521.778L429.722 519.744C429.828 518.056 429.863 517.261 429.857 516.417L429.832 515.152C429.684 509.717 429.058 504.385 427.949 499.23C425.667 488.616 421.246 478.536 414.986 469.669C414.923 469.582 414.705 469.281 414.393 468.853C413.436 467.537 411.607 465.024 410.816 463.861L410.599 463.537C409.239 461.437 408.351 459.522 407.717 457.156C406.298 451.868 406.421 447.998 407.742 443.531C407.803 443.326 407.916 443.142 408.07 442.995L408.142 442.922C409.068 441.922 411.552 437.237 412.225 435.171C412.635 433.909 413.225 431.113 413.36 429.672L413.369 429.54L413.26 429.516C412.537 429.365 411.508 429.3 410.341 429.359L410.089 429.374C409.3 429.425 407.72 429.776 406.1 430.253C404.642 430.683 403.367 431.17 403.237 431.286C402.589 431.862 401.564 431.593 401.282 430.772C401.033 430.044 400.631 429.342 400.003 428.722C399.389 428.116 398.665 427.705 397.872 427.453C397.325 427.279 396.84 427.205 396.384 427.181C395.776 427.151 395.285 426.674 395.236 426.067Z" fill="black"/>
<path d="M410.527 492.037C411.142 491.77 411.857 492.052 412.124 492.667C412.391 493.282 412.109 493.997 411.493 494.263C405.829 496.723 400.561 500.783 397.026 507.553C394.159 513.042 393.363 518.904 394.128 524.822C394.408 526.988 394.885 529.039 395.492 530.934C395.898 532.195 396.285 533.173 396.646 533.963C396.926 534.574 396.655 535.297 396.042 535.574L379.352 543.103C378.741 543.379 378.022 543.108 377.747 542.496C377.471 541.885 377.742 541.166 378.353 540.89L393.959 533.849L393.881 533.654C393.691 533.169 393.497 532.634 393.3 532.04L393.181 531.676C392.53 529.647 392.02 527.454 391.72 525.133C390.896 518.751 391.758 512.395 394.873 506.429C398.71 499.081 404.399 494.697 410.527 492.037Z" fill="black"/>
<path d="M383.046 487.007C383.677 487.028 384.179 487.526 384.217 488.144L384.219 488.26L383.096 521.472C383.074 522.142 382.512 522.667 381.842 522.645C381.211 522.623 380.709 522.124 380.672 521.508L380.67 521.39L381.792 488.178C381.815 487.508 382.376 486.984 383.046 487.007Z" fill="black"/>
<path d="M368.022 429.677C368.314 429.119 368.981 428.883 369.554 429.117L369.66 429.166L388.237 438.909C388.831 439.219 389.06 439.953 388.749 440.547C388.455 441.106 387.788 441.341 387.216 441.108L387.11 441.059L368.533 431.317C367.939 431.005 367.71 430.271 368.022 429.677Z" fill="black"/>
<path d="M387.673 444.112C388.344 444.112 388.887 444.655 388.887 445.325C388.887 445.956 388.406 446.475 387.791 446.534L387.673 446.539H363.219C362.549 446.539 362.005 445.996 362.005 445.325C362.005 444.694 362.487 444.175 363.103 444.117L363.219 444.112H387.673Z" fill="black"/>
<path d="M423.008 440.606C423.678 440.606 424.222 441.149 424.222 441.82C424.222 442.45 423.74 442.969 423.124 443.028L423.008 443.034H399.013C398.343 443.034 397.799 442.49 397.799 441.82C397.799 441.188 398.28 440.67 398.895 440.611L399.013 440.606H423.008Z" fill="black"/>
<path d="M397.501 446.819C397.717 446.225 398.345 445.902 398.944 446.056L399.056 446.091L423.791 455.046C424.422 455.275 424.748 455.971 424.52 456.601C424.305 457.194 423.676 457.518 423.077 457.363L422.965 457.329L398.23 448.373C397.599 448.145 397.273 447.449 397.501 446.819Z" fill="black"/>
<path d="M420.841 521.836C421.511 521.794 422.087 522.302 422.129 522.972C422.229 524.553 422.162 526.267 421.779 528.258C421.215 531.191 420.054 534.021 418.15 536.608C415.239 540.563 411.641 542.771 407.923 543.997C407.286 544.207 406.6 543.861 406.389 543.224C406.18 542.587 406.526 541.901 407.162 541.691C410.445 540.609 413.628 538.655 416.195 535.168C417.873 532.889 418.897 530.394 419.395 527.8C419.735 526.033 419.793 524.517 419.706 523.124C419.664 522.454 420.172 521.877 420.841 521.836Z" fill="black"/>
<path d="M558.012 550.08C558.682 550.08 559.226 550.624 559.226 551.294C559.226 551.925 558.744 552.444 558.129 552.502L558.012 552.508H25.2327C24.5618 552.508 24.0188 551.965 24.0188 551.294C24.0188 550.663 24.5003 550.145 25.1154 550.086L25.2327 550.08H558.012Z" fill="black"/>
<path fill-rule="evenodd" clip-rule="evenodd" d="M48.7164 119.611H115.583C116.254 119.611 116.797 120.154 116.797 120.825V148.411C116.797 149.082 116.254 149.625 115.583 149.625H48.7164C48.0463 149.625 47.5024 149.082 47.5024 148.411V120.825C47.5024 120.154 48.0463 119.611 48.7164 119.611ZM114.369 147.198V122.039H49.9303V147.198H114.369Z" fill="black"/>
<path fill-rule="evenodd" clip-rule="evenodd" d="M115.583 119.552H182.45C183.121 119.552 183.664 120.095 183.664 120.766V148.352C183.664 149.022 183.121 149.566 182.45 149.566H115.583C114.913 149.566 114.369 149.022 114.369 148.352V120.766C114.369 120.095 114.913 119.552 115.583 119.552ZM181.236 147.138V121.979H116.797V147.138H181.236Z" fill="black"/>
<path d="M211.063 119.552C211.733 119.552 212.277 120.095 212.277 120.766C212.277 121.397 211.796 121.915 211.18 121.974L211.063 121.98L183.664 121.979V147.138L197.153 147.138C197.785 147.138 198.303 147.62 198.362 148.235L198.367 148.352C198.367 148.984 197.886 149.502 197.27 149.561L197.153 149.566H182.45C181.819 149.566 181.301 149.085 181.242 148.469L181.237 148.352V120.766C181.237 120.134 181.718 119.616 182.333 119.557L182.45 119.552H211.063Z" fill="black"/>
<path fill-rule="evenodd" clip-rule="evenodd" d="M82.1502 147.116H149.017C149.687 147.116 150.231 147.659 150.231 148.33V175.917C150.231 176.587 149.687 177.131 149.017 177.131H82.1502C81.4801 177.131 80.9363 176.587 80.9363 175.917V148.33C80.9363 147.659 81.4801 147.116 82.1502 147.116ZM147.803 174.702V149.543H83.3633V174.702H147.803Z" fill="black"/>
<path fill-rule="evenodd" clip-rule="evenodd" d="M82.1502 92.0242H149.017C149.687 92.0242 150.231 92.568 150.231 93.2381V120.825C150.231 121.495 149.687 122.039 149.017 122.039H82.1502C81.4801 122.039 80.9363 121.495 80.9363 120.825V93.2381C80.9363 92.568 81.4801 92.0242 82.1502 92.0242ZM147.803 119.61V94.4512H83.3633V119.61H147.803Z" fill="black"/>
<path d="M48.7163 147.198C49.3864 147.198 49.9302 147.742 49.9302 148.412C49.9302 149.043 49.4487 149.561 48.8329 149.62L48.7163 149.626H2.2022C1.53131 149.626 0.988281 149.082 0.988281 148.412C0.988281 147.78 1.4698 147.263 2.08485 147.203L2.2022 147.198H48.7163Z" fill="black"/>
<path d="M51.6121 119.611C52.283 119.611 52.826 120.155 52.826 120.825C52.826 121.456 52.3453 121.975 51.7295 122.033L51.6121 122.039H32.7276C32.0575 122.039 31.5137 121.496 31.5137 120.825C31.5137 120.194 31.9952 119.676 32.6111 119.616L32.7276 119.611H51.6121Z" fill="black"/>
<path d="M115.583 68.1179C116.214 68.1179 116.733 68.5994 116.791 69.2153L116.797 69.3318V93.2379C116.797 93.9088 116.254 94.4519 115.583 94.4519C114.953 94.4519 114.434 93.9703 114.375 93.3553L114.369 93.2379V69.3318C114.369 68.6618 114.913 68.1179 115.583 68.1179Z" fill="black"/>
<path d="M132.587 68.1179C133.257 68.1179 133.801 68.6618 133.801 69.3318C133.801 69.9631 133.319 70.4818 132.703 70.5401L132.587 70.5458H92.3511C91.6802 70.5458 91.1372 70.0027 91.1372 69.3318C91.1372 68.7006 91.6187 68.1827 92.2338 68.1236L92.3511 68.1179H132.587Z" fill="black"/>
<path d="M196.849 92.0242C197.519 92.0242 198.062 92.568 198.062 93.2381C198.062 93.8693 197.581 94.3881 196.965 94.4464L196.849 94.452H149.017C148.346 94.452 147.803 93.909 147.803 93.2381C147.803 92.6077 148.285 92.0889 148.9 92.0298L149.017 92.0242H196.849Z" fill="black"/>
<path d="M82.1494 174.703C82.8203 174.703 83.3633 175.247 83.3633 175.917C83.3633 176.548 82.8818 177.067 82.2668 177.125L82.1494 177.131H62.6741C62.004 177.131 61.4602 176.588 61.4602 175.917C61.4602 175.287 61.9417 174.768 62.5576 174.709L62.6741 174.703H82.1494Z" fill="black"/>
<path d="M168.012 174.703C168.682 174.703 169.226 175.247 169.226 175.917C169.226 176.548 168.745 177.067 168.129 177.125L168.012 177.131H149.017C148.346 177.131 147.803 176.588 147.803 175.917C147.803 175.287 148.285 174.768 148.9 174.709L149.017 174.703H168.012Z" fill="black"/>
<path fill-rule="evenodd" clip-rule="evenodd" d="M425.196 349.599H492.063C492.733 349.599 493.277 350.143 493.277 350.813V378.4C493.277 379.07 492.733 379.614 492.063 379.614H425.196C424.526 379.614 423.982 379.07 423.982 378.4V350.813C423.982 350.143 424.526 349.599 425.196 349.599ZM490.849 377.185V352.026H426.41V377.185H490.849Z" fill="black"/>
<path fill-rule="evenodd" clip-rule="evenodd" d="M492.063 349.539H558.93C559.601 349.539 560.144 350.082 560.144 350.752V378.339C560.144 379.009 559.601 379.553 558.93 379.553H492.063C491.393 379.553 490.849 379.009 490.849 378.339V350.752C490.849 350.082 491.393 349.539 492.063 349.539ZM557.716 377.125V351.966H493.277V377.125H557.716Z" fill="black"/>
<path d="M587.543 349.539C588.214 349.539 588.757 350.082 588.757 350.752C588.757 351.384 588.277 351.902 587.661 351.961L587.543 351.966H560.144V377.125H573.634C574.265 377.125 574.784 377.607 574.843 378.223L574.847 378.339C574.847 378.97 574.367 379.489 573.751 379.547L573.634 379.553H558.93C558.299 379.553 557.781 379.072 557.722 378.457L557.716 378.339V350.752C557.716 350.122 558.197 349.603 558.813 349.544L558.93 349.539H587.543Z" fill="black"/>
<path d="M525.497 377.125C526.128 377.125 526.646 377.607 526.705 378.223L526.711 378.339V405.926C526.711 406.597 526.167 407.14 525.497 407.14C524.866 407.14 524.347 406.658 524.289 406.043L524.283 405.926V378.339C524.283 377.669 524.826 377.125 525.497 377.125Z" fill="black"/>
<path d="M525.497 322.011C526.128 322.011 526.646 322.493 526.705 323.109L526.711 323.225L526.71 349.598H592.364C592.996 349.598 593.514 350.08 593.573 350.696L593.578 350.812C593.578 351.443 593.097 351.962 592.481 352.021L592.364 352.026H525.497C524.866 352.026 524.347 351.545 524.289 350.929L524.283 350.812V323.225C524.283 322.555 524.826 322.011 525.497 322.011Z" fill="black"/>
<path d="M425.196 377.185C425.867 377.185 426.41 377.729 426.41 378.399C426.41 379.03 425.93 379.549 425.314 379.608L425.196 379.613H396.07C395.4 379.613 394.856 379.07 394.856 378.399C394.856 377.769 395.338 377.25 395.954 377.191L396.07 377.185H425.196Z" fill="black"/>
<path d="M428.093 349.599C428.763 349.599 429.306 350.142 429.306 350.813C429.306 351.443 428.825 351.962 428.209 352.021L428.093 352.027H409.208C408.537 352.027 407.994 351.483 407.994 350.813C407.994 350.182 408.475 349.663 409.091 349.604L409.208 349.599H428.093Z" fill="black"/>
<path fill-rule="evenodd" clip-rule="evenodd" d="M482.16 550.409C472.516 546 468.272 534.607 472.68 524.963C477.09 515.318 488.481 511.074 498.125 515.483C507.77 519.892 512.015 531.285 507.605 540.929C503.197 550.573 491.805 554.818 482.16 550.409ZM505.397 539.92C509.249 531.494 505.541 521.542 497.116 517.691L496.849 517.571C488.482 513.917 478.699 517.636 474.888 525.972C471.037 534.398 474.744 544.35 483.17 548.201C491.594 552.052 501.546 548.344 505.397 539.92Z" fill="black"/>
<path d="M484.616 514.571C485.225 514.291 485.946 514.559 486.226 515.167C488.542 520.209 488.595 526.02 486.243 531.163C483.893 536.308 479.463 540.069 474.136 541.616C473.492 541.803 472.818 541.432 472.631 540.789C472.444 540.145 472.814 539.471 473.458 539.284C478.114 537.932 481.981 534.649 484.036 530.154C486.09 525.659 486.044 520.588 484.02 516.181C483.74 515.572 484.007 514.851 484.616 514.571Z" fill="black"/>
<path d="M506.158 524.279C506.803 524.092 507.476 524.462 507.663 525.107C507.85 525.75 507.479 526.423 506.835 526.61C502.178 527.962 498.312 531.246 496.258 535.74C494.204 540.237 494.25 545.309 496.274 549.714C496.554 550.323 496.287 551.044 495.677 551.324C495.069 551.604 494.348 551.337 494.068 550.728C491.752 545.687 491.699 539.877 494.05 534.731C496.401 529.588 500.83 525.826 506.158 524.279Z" fill="black"/>
<path fill-rule="evenodd" clip-rule="evenodd" d="M417.869 40.9205C417.869 63.3982 399.647 81.6208 377.169 81.6208C354.69 81.6208 336.468 63.3982 336.468 40.9205C336.468 18.4428 354.69 0.220215 377.169 0.220215C399.647 0.220215 417.869 18.4428 417.869 40.9205Z" fill="black"/>
<path d="M365.334 50.5009C366.378 41.9104 374.01 35.1051 381.706 37.9101C387.575 40.049 390.673 45.0787 391.152 51.8702C391.546 57.4631 390.068 63.9729 387.512 68.9257C387.308 69.3231 386.82 69.4793 386.422 69.2737C386.025 69.069 385.869 68.581 386.074 68.1836C388.499 63.4857 389.909 57.2689 389.537 51.9835C389.101 45.7803 386.358 41.3277 381.151 39.4307C374.587 37.0385 367.873 43.0264 366.941 50.6959C366.28 56.1375 367.549 62.1715 370.35 66.7658C370.583 67.1477 370.462 67.6454 370.081 67.8785C369.699 68.1108 369.201 67.9902 368.969 67.6082C365.976 62.7007 364.63 56.3002 365.334 50.5009Z" fill="#F5F5F5"/>
<path d="M363.776 21.6394C364.709 21.5609 365.639 21.6896 366.53 22.0384C368.062 22.6413 369.398 23.7363 370.75 25.3273C373.451 28.5167 375.084 31.9804 377.122 37.9626C377.266 38.385 377.04 38.8455 376.617 38.9896C376.194 39.1336 375.734 38.907 375.59 38.4838L375.273 37.5644C373.442 32.3235 371.914 29.2054 369.516 26.3745C368.321 24.9688 367.18 24.0333 365.939 23.5445C365.283 23.2887 364.602 23.194 363.903 23.2523C362.884 23.3276 361.824 23.7338 360.799 24.4193C360.072 24.9089 359.444 25.5782 358.972 26.368C358.212 27.6224 357.907 29.0726 358.143 30.3869C358.45 32.0629 359.575 33.6346 361.396 35.1714L362.351 35.9604C362.684 36.2307 363.047 36.5221 363.491 36.8741L365.74 38.6553C367.681 40.1986 368.741 41.0896 369.941 42.2056C370.269 42.5099 370.288 43.0214 369.984 43.3491C369.679 43.6761 369.167 43.6947 368.839 43.3904L368.264 42.8636C367.257 41.9572 366.22 41.1018 364.48 39.7211L361.781 37.5798C361.248 37.1525 360.821 36.8013 360.354 36.4096C358.272 34.6518 356.937 32.7897 356.55 30.6758C356.242 28.9569 356.63 27.1093 357.585 25.5337C358.175 24.5455 358.968 23.7006 359.898 23.0751C361.143 22.2415 362.465 21.7357 363.776 21.6394Z" fill="#F5F5F5"/>
<path d="M387.72 29.9644C391.284 26.8446 395.859 25.7399 399.982 27.3026C403.844 28.7771 406.225 32.5233 405.032 36.25C404.5 37.9196 403.336 39.3148 401.532 40.7529C399.68 42.2177 397.592 43.4243 395.35 44.3388C393.275 45.1861 391.077 45.7817 388.837 46.1054C388.395 46.1694 387.985 45.8626 387.921 45.42C387.857 44.9773 388.164 44.567 388.606 44.503C390.715 44.1988 392.787 43.6371 394.739 42.84C396.842 41.9822 398.797 40.8516 400.525 39.4855C402.099 38.2303 403.075 37.0617 403.49 35.758C404.392 32.9376 402.53 30.0081 399.406 28.8152C395.882 27.4791 391.925 28.4348 388.785 31.1823C386.392 33.2719 384.461 36.2282 383.371 39.4159C383.227 39.8392 382.767 40.065 382.344 39.9201C381.92 39.7761 381.695 39.3156 381.839 38.8931C383.019 35.4416 385.108 32.2441 387.72 29.9644Z" fill="#F5F5F5"/>
<path d="M360.038 51.0097C360.222 50.6383 360.654 50.4716 361.036 50.6092L361.123 50.6456L366.32 53.2312C366.72 53.4303 366.884 53.9167 366.684 54.3165C366.499 54.6879 366.067 54.8554 365.686 54.7179L365.599 54.6806L360.402 52.095C360.001 51.8959 359.839 51.4103 360.038 51.0097Z" fill="#F5F5F5"/>
<path d="M394.171 56.8504C394.548 56.6101 395.048 56.7201 395.289 57.0964C395.513 57.446 395.434 57.9025 395.12 58.1582L395.044 58.214L390.019 61.4301C389.642 61.6713 389.141 61.5612 388.9 61.1849C388.677 60.8353 388.755 60.3789 389.069 60.1223L389.145 60.0665L394.171 56.8504Z" fill="#F5F5F5"/>
<path d="M357.118 28.8566C357.559 28.7822 357.977 29.08 358.05 29.5202C358.119 29.9297 357.868 30.319 357.479 30.4315L357.387 30.4525L349.877 31.7166C349.436 31.7911 349.02 31.4941 348.945 31.053C348.876 30.6443 349.127 30.2551 349.517 30.1418L349.609 30.1207L357.118 28.8566Z" fill="#F5F5F5"/>
<path d="M349.002 21.8901C349.168 21.5098 349.591 21.3212 349.979 21.4402L350.068 21.4726L358.6 25.2033C359.009 25.383 359.196 25.8597 359.017 26.2692C358.851 26.6495 358.428 26.8381 358.04 26.7191L357.951 26.6867L349.419 22.956C349.009 22.7763 348.823 22.2996 349.002 21.8901Z" fill="#F5F5F5"/>
<path d="M355.628 15.1344C355.992 14.9354 356.442 15.0446 356.676 15.3756L356.727 15.4557L361.057 23.3591C361.271 23.7508 361.128 24.2429 360.736 24.4573C360.372 24.6572 359.922 24.5472 359.688 24.217L359.638 24.1369L355.307 16.2335C355.093 15.8418 355.236 15.3497 355.628 15.1344Z" fill="#F5F5F5"/>
<path d="M365.098 12.994C365.512 13.0126 365.84 13.3404 365.868 13.7442L365.87 13.8389L365.481 22.4788C365.46 22.9255 365.083 23.271 364.636 23.2508C364.221 23.2322 363.894 22.9044 363.865 22.5006L363.864 22.4059L364.253 13.7661C364.273 13.3193 364.651 12.9738 365.098 12.994Z" fill="#F5F5F5"/>
<path fill-rule="evenodd" clip-rule="evenodd" d="M368.813 32.2161C368.813 33.3289 367.91 34.2312 366.797 34.2312C365.684 34.2312 364.782 33.3289 364.782 32.2161C364.782 31.1025 365.684 30.2002 366.797 30.2002C367.91 30.2002 368.813 31.1025 368.813 32.2161Z" fill="#F5F5F5"/>
<path fill-rule="evenodd" clip-rule="evenodd" d="M375.926 49.3555C375.926 50.4683 375.023 51.3706 373.91 51.3706C372.797 51.3706 371.895 50.4683 371.895 49.3555C371.895 48.2419 372.797 47.3396 373.91 47.3396C375.023 47.3396 375.926 48.2419 375.926 49.3555Z" fill="#F5F5F5"/>
<path fill-rule="evenodd" clip-rule="evenodd" d="M395.928 35.313C395.928 36.4258 395.026 37.3281 393.912 37.3281C392.799 37.3281 391.897 36.4258 391.897 35.313C391.897 34.1995 392.799 33.2971 393.912 33.2971C395.026 33.2971 395.928 34.1995 395.928 35.313Z" fill="#F5F5F5"/>
<path fill-rule="evenodd" clip-rule="evenodd" d="M384.784 55.3226C384.784 56.4361 383.882 57.3385 382.769 57.3385C381.656 57.3385 380.753 56.4361 380.753 55.3226C380.753 54.209 381.656 53.3066 382.769 53.3066C383.882 53.3066 384.784 54.209 384.784 55.3226Z" fill="#F5F5F5"/>
<path fill-rule="evenodd" clip-rule="evenodd" d="M378.359 62.4961C378.359 63.6096 377.457 64.512 376.344 64.512C375.231 64.512 374.328 63.6096 374.328 62.4961C374.328 61.3833 375.231 60.481 376.344 60.481C377.457 60.481 378.359 61.3833 378.359 62.4961Z" fill="#F5F5F5"/>
<path d="M394.362 43.1506C394.586 42.8018 395.035 42.6836 395.398 42.8617L395.481 42.9086L399.174 45.2855C399.55 45.5266 399.658 46.0276 399.417 46.4039C399.192 46.7527 398.744 46.8709 398.38 46.6928L398.298 46.6459L394.605 44.269C394.229 44.0278 394.12 43.5269 394.362 43.1506Z" fill="#F5F5F5"/>
<path d="M394.365 20.6634C394.776 20.7281 395.065 21.0898 395.048 21.4945L395.039 21.5892L394.039 27.9461C393.97 28.3871 393.555 28.689 393.114 28.6194C392.704 28.5546 392.414 28.1929 392.431 27.7883L392.44 27.6944L393.44 21.3375C393.505 20.9272 393.867 20.6383 394.271 20.6545L394.365 20.6634Z" fill="#F5F5F5"/>
<path d="M407.289 28.5589C407.692 28.3655 408.176 28.5338 408.37 28.9369C408.55 29.3108 408.417 29.7542 408.075 29.9711L407.992 30.0173L403.976 31.9531C403.574 32.1473 403.09 31.9781 402.896 31.5751C402.716 31.2012 402.849 30.7578 403.191 30.5409L403.274 30.4947L407.289 28.5589Z" fill="#F5F5F5"/>
<path d="M374.305 24.1522C374.512 23.7556 375.001 23.6019 375.397 23.8082C375.765 24 375.924 24.4346 375.78 24.8133L375.741 24.8991L373.261 29.6617C373.055 30.0583 372.566 30.2128 372.17 30.0065C371.801 29.8147 371.643 29.3793 371.787 29.0006L371.826 28.9148L374.305 24.1522Z" fill="#F5F5F5"/>
<path d="M363.999 37.8472C364.403 37.6578 364.885 37.8326 365.075 38.2372C365.25 38.6135 365.113 39.0554 364.768 39.2682L364.685 39.3136L359.895 41.5553C359.49 41.7446 359.008 41.5698 358.818 41.1652C358.643 40.7897 358.78 40.347 359.125 40.1342L359.208 40.0889L363.999 37.8472Z" fill="#F5F5F5"/>
<path fill-rule="evenodd" clip-rule="evenodd" d="M199.071 237.151C199.071 258.352 181.883 275.54 160.681 275.54C139.48 275.54 122.291 258.352 122.291 237.151C122.291 215.949 139.48 198.761 160.681 198.761C181.883 198.761 199.071 215.949 199.071 237.151Z" fill="black"/>
<path d="M164.373 253.182C164.75 252.943 165.25 253.055 165.49 253.433C165.712 253.783 165.631 254.24 165.316 254.495L165.215 254.565C165.132 254.618 164.918 254.755 164.829 254.81C164.623 254.939 164.421 255.062 164.206 255.187C163.637 255.52 163.043 255.835 162.405 256.131C158.973 257.727 155.333 258.351 151.625 257.445C148.884 256.774 146.64 255.493 144.766 253.874C144.374 253.535 144.397 252.921 144.812 252.612C145.733 251.928 146.499 251.068 147.002 249.943C147.402 249.044 147.635 247.957 147.658 246.886C147.669 246.439 148.039 246.085 148.485 246.094C148.932 246.105 149.287 246.475 149.277 246.922C149.248 248.202 148.969 249.501 148.48 250.601C148.018 251.636 147.386 252.483 146.638 253.191L146.568 253.254L146.652 253.319C148.074 254.393 149.714 255.251 151.625 255.773L152.01 255.874C155.313 256.68 158.596 256.117 161.723 254.663C162.312 254.39 162.862 254.098 163.389 253.79L163.682 253.616L164.082 253.367L164.373 253.182Z" fill="#F5F5F5"/>
<path d="M137.85 228.863C138.255 228.315 139.1 228.489 139.277 229.119L139.33 229.371C139.37 229.558 139.442 229.827 139.549 230.154C139.792 230.887 140.13 231.621 140.579 232.301C141.73 234.047 143.387 235.142 145.698 235.316C146.144 235.349 146.478 235.737 146.445 236.183C146.411 236.628 146.023 236.962 145.578 236.929C142.732 236.716 140.639 235.334 139.227 233.192C138.828 232.586 138.504 231.95 138.248 231.306L138.218 231.23L138.111 231.412C137.104 233.169 136.4 235.197 136.209 237.574L136.183 237.953C136.046 240.36 136.5 242.617 137.392 244.698C137.694 245.403 138.016 246.03 138.353 246.598L138.425 246.715L138.471 246.59L138.593 246.289C139.112 245.067 139.893 243.977 140.99 243.113C141.484 242.725 142.091 242.322 142.799 241.979C143.924 241.435 145.02 241.19 146.045 241.39C146.484 241.476 146.77 241.901 146.685 242.339C146.605 242.747 146.233 243.023 145.829 242.992L145.735 242.979C145.115 242.858 144.343 243.03 143.505 243.436C142.917 243.721 142.401 244.062 141.991 244.384C141.123 245.068 140.501 245.936 140.083 246.921C139.799 247.589 139.652 248.188 139.574 248.753C139.475 249.462 138.572 249.703 138.133 249.137C137.324 248.096 136.568 246.888 135.903 245.336C134.919 243.035 134.414 240.532 134.567 237.861C134.775 234.196 136.064 231.276 137.85 228.863Z" fill="#F5F5F5"/>
<path d="M164.806 222.651C174.095 222.651 182.158 227.632 184.428 234.694C184.565 235.119 184.331 235.575 183.905 235.712C183.479 235.849 183.024 235.615 182.887 235.189C180.849 228.849 173.436 224.269 164.806 224.269C154.48 224.269 146.175 230.765 146.175 238.663C146.175 246.563 154.478 253.056 164.806 253.056C169.663 253.056 174.221 251.613 177.659 249.077C178.018 248.812 178.525 248.888 178.791 249.248C179.056 249.607 178.979 250.114 178.62 250.379C174.898 253.125 170.003 254.675 164.806 254.675C153.66 254.675 144.556 247.557 144.556 238.663C144.556 229.771 153.661 222.651 164.806 222.651Z" fill="#F5F5F5"/>
<path d="M149.002 218.015C152.854 216.062 156.189 216.083 160.594 217.057C165.187 218.069 168.947 220.528 171.953 223.8C172.255 224.129 172.233 224.641 171.904 224.943C171.575 225.246 171.062 225.224 170.761 224.895C167.963 221.849 164.478 219.57 160.246 218.638C156.174 217.737 153.165 217.719 149.733 219.458C148.109 220.282 146.799 221.36 145.721 222.599L145.523 222.83L145.683 222.98C146.826 224.077 147.822 225.414 148.565 227.087L148.72 227.451C149.066 228.296 149.315 229.156 149.476 230.025C149.557 230.464 149.266 230.886 148.827 230.968C148.387 231.049 147.965 230.758 147.884 230.319C147.743 229.557 147.525 228.804 147.222 228.065C146.427 226.127 145.251 224.679 143.895 223.552C143.563 223.275 143.506 222.787 143.766 222.443C145.097 220.677 146.785 219.138 149.002 218.015Z" fill="#F5F5F5"/>
<path fill-rule="evenodd" clip-rule="evenodd" d="M174.045 234.6C175.161 233.634 176.308 232.928 177.465 232.616C181.128 231.631 185.736 234.428 188.574 239.273C188.69 239.473 188.716 239.713 188.645 239.932C187.734 242.734 186.339 245.488 184.225 248.113C182.593 250.14 180.785 251.765 178.865 253.098C178.329 253.47 177.597 253.088 177.594 252.436C177.586 250.512 177.207 248.524 176.219 246.504C174.867 243.742 172.895 241.912 170.714 240.657C170.363 240.455 170.215 240.025 170.368 239.651C170.846 238.475 171.498 237.337 172.408 236.25C172.488 236.155 172.583 236.045 172.696 235.921L172.942 235.654C173.28 235.299 173.649 234.942 174.045 234.6ZM186.988 239.779L186.869 239.587C184.356 235.624 180.612 233.446 177.886 234.18C177.006 234.416 176.052 235.004 175.104 235.823C174.487 236.358 173.989 236.882 173.65 237.288C173.094 237.953 172.648 238.639 172.286 239.345L172.144 239.631L172.324 239.746C174.35 241.066 176.168 242.883 177.502 245.453L177.673 245.793C178.472 247.428 178.916 249.041 179.103 250.621L179.131 250.888L179.458 250.628C180.572 249.72 181.637 248.685 182.634 247.499L182.965 247.098C184.945 244.639 186.252 242.058 187.106 239.432L186.988 239.779Z" fill="#F5F5F5"/>
<path fill-rule="evenodd" clip-rule="evenodd" d="M181.272 238.384C181.272 239.226 180.589 239.91 179.747 239.91C178.903 239.91 178.22 239.226 178.22 238.384C178.22 237.541 178.903 236.858 179.747 236.858C180.589 236.858 181.272 237.541 181.272 238.384Z" fill="#F5F5F5"/>
<path d="M162.234 232.266C162.679 232.232 163.069 232.564 163.104 233.01C163.139 233.455 162.806 233.845 162.36 233.88C159.671 234.092 157.523 236.177 157.354 238.613C157.154 241.483 159.72 244.127 162.895 244.103C163.343 244.1 163.708 244.459 163.711 244.907C163.714 245.353 163.355 245.718 162.907 245.721C158.801 245.753 155.473 242.324 155.739 238.5C155.965 235.251 158.758 232.54 162.234 232.266Z" fill="#F5F5F5"/>
<path fill-rule="evenodd" clip-rule="evenodd" d="M191.15 230.443C191.15 231.593 190.217 232.526 189.066 232.526C187.916 232.526 186.983 231.593 186.983 230.443C186.983 229.292 187.916 228.359 189.066 228.359C190.217 228.359 191.15 229.292 191.15 230.443Z" fill="#F5F5F5"/>
<path fill-rule="evenodd" clip-rule="evenodd" d="M185.986 223.164C185.986 223.873 185.411 224.447 184.701 224.447C183.992 224.447 183.418 223.873 183.418 223.164C183.418 222.454 183.992 221.88 184.701 221.88C185.411 221.88 185.986 222.454 185.986 223.164Z" fill="#F5F5F5"/>
<path fill-rule="evenodd" clip-rule="evenodd" d="M494.59 270.32C494.59 300.286 470.297 324.579 440.33 324.579C410.363 324.579 386.07 300.286 386.07 270.32C386.07 240.353 410.363 216.059 440.33 216.059C470.297 216.059 494.59 240.353 494.59 270.32Z" fill="black"/>
<path fill-rule="evenodd" clip-rule="evenodd" d="M476.836 271.779C474.48 268.622 471.961 265.585 469.731 262.334C467.93 259.712 466.69 256.858 466.085 253.696C465.076 248.422 460.528 244.459 455.194 243.926C452.245 243.632 449.389 244.055 446.53 244.688C442.246 245.639 437.914 245.927 433.553 245.359C431.456 245.088 429.472 244.42 427.491 243.654C421.766 241.439 416.362 241.857 411.603 246.073C409.622 247.829 408.336 250.098 407.259 252.487C407.102 252.837 407.154 253.171 407.395 253.485C407.865 254.096 408.383 254.664 408.958 255.174C409.233 255.419 409.342 255.677 409.337 256.045C409.319 257.542 409.323 259.04 409.334 260.537C409.338 261.147 409.618 261.468 410.093 261.466C410.563 261.464 410.845 261.137 410.874 260.544C410.885 260.348 410.877 260.151 410.877 259.953V256.835C411.763 257.405 412.549 257.918 413.344 258.418C413.561 258.554 413.517 258.751 413.517 258.941C413.521 260.261 413.519 261.581 413.519 262.902C413.519 263.04 413.506 263.18 413.521 263.316C413.568 263.783 413.806 264.099 414.292 264.139C414.722 264.174 415.05 263.804 415.057 263.27C415.072 262.167 415.083 261.063 415.054 259.96C415.042 259.459 415.138 259.324 415.618 259.589C416.256 259.942 416.929 260.232 417.627 260.443C417.987 260.551 418.11 260.737 418.103 261.118C418.079 262.438 418.093 263.759 418.094 265.08C418.094 265.237 418.088 265.395 418.103 265.552C418.145 266.011 418.397 266.292 418.858 266.299C419.294 266.306 419.547 266.03 419.613 265.613C419.652 265.362 419.637 265.103 419.638 264.847C419.64 263.783 419.653 262.718 419.632 261.654C419.625 261.261 419.697 261.136 420.12 261.267C420.814 261.482 421.524 261.658 422.237 261.797C422.638 261.875 422.795 262.018 422.785 262.448C422.756 263.729 422.773 265.01 422.776 266.291C422.776 266.468 422.775 266.647 422.806 266.82C422.882 267.24 423.13 267.5 423.571 267.49C424.013 267.48 424.247 267.21 424.304 266.786C424.326 266.611 424.324 266.433 424.324 266.256C424.325 265.073 424.333 263.89 424.32 262.708C424.317 262.374 424.355 262.189 424.77 262.268C425.642 262.433 426.523 262.541 427.412 262.552C427.749 262.557 427.832 262.714 427.829 263.031C427.814 264.332 427.823 265.632 427.823 266.933C427.823 267.071 427.809 267.211 427.827 267.346C427.891 267.812 428.131 268.14 428.63 268.117C429.119 268.094 429.362 267.775 429.363 267.288C429.367 265.947 429.388 264.607 429.354 263.267C429.341 262.769 429.492 262.633 429.981 262.65C431.417 262.701 432.856 262.61 434.293 262.748C435.284 262.843 436.277 263.002 437.126 263.509C439.061 264.663 440.976 264.512 442.949 263.66C445.359 262.62 447.659 261.369 449.947 260.095C450.459 259.809 450.617 259.369 450.388 258.975C450.162 258.584 449.702 258.482 449.192 258.759C447.116 259.889 445.055 261.049 442.879 261.98C442.319 262.219 441.743 262.428 441.16 262.606C440.241 262.886 439.335 262.85 438.464 262.396C436.58 261.415 434.547 261.099 432.456 261.126C429.1 261.169 425.759 261.05 422.471 260.294C420.026 259.73 417.65 258.952 415.416 257.799C413.079 256.591 410.916 255.137 409.114 253.186C408.846 252.896 408.82 252.683 408.993 252.322C410.282 249.619 412.015 247.285 414.593 245.689C417.835 243.682 421.323 243.466 424.957 244.357C426.082 244.633 427.067 245.22 428.135 245.618C431.549 246.892 435.096 247.227 438.709 247.169C442.297 247.111 445.781 246.39 449.276 245.677C452.251 245.07 455.232 245.053 458.114 246.202C460.836 247.285 462.694 249.26 463.874 251.911C464.261 252.779 464.524 253.682 464.708 254.613C465.417 258.207 467.087 261.347 469.263 264.25C471.378 267.072 473.493 269.893 475.611 272.713C476.125 273.398 476.56 273.568 476.954 273.249C477.345 272.931 477.297 272.396 476.836 271.779Z" fill="#F5F5F5"/>
<path fill-rule="evenodd" clip-rule="evenodd" d="M407.167 252.445C408.46 249.577 409.759 247.573 411.537 245.998L411.783 245.783C416.315 241.908 421.586 241.262 427.528 243.56L427.95 243.721C430.164 244.559 431.837 245.035 433.566 245.26C437.786 245.808 442.091 245.57 446.508 244.59L446.99 244.485C450.172 243.809 452.688 243.575 455.205 243.826C460.635 244.368 465.176 248.408 466.185 253.677L466.283 254.162C466.904 257.066 468.083 259.755 469.814 262.277C470.675 263.532 471.443 264.582 472.681 266.201L476.014 270.522L476.917 271.719C477.409 272.377 477.458 272.971 477.019 273.328C476.568 273.694 476.073 273.497 475.53 272.774L469.182 264.311C466.797 261.13 465.273 258.001 464.609 254.633L464.533 254.27C464.347 253.433 464.101 252.669 463.782 251.952C462.572 249.234 460.691 247.337 458.077 246.296C455.42 245.236 452.549 245.113 449.297 245.776L447.398 246.16C443.617 246.907 441.283 247.229 438.711 247.271C434.623 247.336 431.238 246.884 428.099 245.714C427.877 245.63 427.683 245.551 427.41 245.431L426.355 244.96C425.862 244.746 425.527 244.619 425.174 244.519L424.933 244.456C421.08 243.512 417.692 243.889 414.647 245.775C412.265 247.25 410.489 249.421 409.084 252.367C408.928 252.692 408.951 252.86 409.189 253.118C410.85 254.917 412.895 256.382 415.462 257.709C417.55 258.787 419.855 259.587 422.493 260.196C425.398 260.863 428.403 261.078 432.455 261.025C434.764 260.995 436.742 261.386 438.511 262.307C439.329 262.734 440.201 262.793 441.13 262.509C441.716 262.331 442.288 262.123 442.84 261.888C444.083 261.355 445.109 260.85 446.794 259.947L449.144 258.671C449.69 258.374 450.216 258.474 450.476 258.925C450.74 259.377 450.548 259.876 449.997 260.184C447.202 261.741 445.382 262.692 443.504 263.528L442.99 263.753C440.813 264.693 438.913 264.693 437.074 263.596L436.918 263.507C436.234 263.138 435.447 262.961 434.284 262.848C433.916 262.813 433.535 262.792 433.107 262.78L432.567 262.77L431.43 262.768C431.054 262.769 430.78 262.768 430.543 262.765L429.889 262.75C429.528 262.751 429.445 262.861 429.456 263.264C429.467 263.718 429.473 264.121 429.474 264.63L429.465 267.288C429.464 267.843 429.166 268.193 428.635 268.218C428.112 268.242 427.804 267.917 427.727 267.36C427.721 267.313 427.717 267.265 427.717 267.208L427.722 266.934L427.721 264.075L427.728 263.03C427.731 262.739 427.666 262.657 427.411 262.654L427.047 262.644C426.316 262.614 425.56 262.52 424.752 262.367L424.683 262.356C424.494 262.328 424.437 262.369 424.424 262.558L424.421 262.707C424.422 262.803 424.423 262.897 424.424 262.99L424.424 266.469C424.423 266.602 424.417 266.699 424.404 266.799C424.339 267.291 424.05 267.581 423.574 267.592C423.097 267.603 422.795 267.325 422.706 266.838C422.686 266.725 422.678 266.608 422.676 266.456L422.667 264.059C422.667 263.655 422.67 263.293 422.675 262.95L422.684 262.445C422.693 262.085 422.591 261.969 422.218 261.896L421.678 261.783C421.139 261.664 420.609 261.524 420.091 261.364L420.02 261.343C419.801 261.282 419.744 261.308 419.734 261.51L419.733 261.652C419.739 261.928 419.742 262.18 419.744 262.463L419.741 265.22C419.74 265.386 419.732 265.505 419.713 265.629C419.637 266.113 419.328 266.408 418.857 266.401C418.354 266.393 418.051 266.082 418.003 265.562C418 265.537 417.998 265.512 417.997 265.486L417.992 265.317L417.99 262.178L418.002 261.117C418.008 260.776 417.91 260.633 417.598 260.54L417.253 260.429C416.681 260.233 416.118 259.981 415.569 259.678L415.497 259.639C415.182 259.473 415.145 259.53 415.156 259.958L415.17 260.769C415.175 261.252 415.174 261.767 415.169 262.395L415.159 263.272C415.151 263.859 414.779 264.281 414.284 264.24C413.769 264.198 413.476 263.866 413.421 263.327C413.416 263.281 413.413 263.233 413.413 263.177L413.418 262.903V260.296L413.417 258.941L413.42 258.774C413.418 258.625 413.39 258.566 413.29 258.503L410.977 257.02L410.978 259.989L410.981 260.244C410.981 260.311 410.981 260.364 410.981 260.412L410.976 260.549C410.944 261.189 410.625 261.565 410.093 261.568C409.551 261.57 409.237 261.192 409.233 260.538C409.224 259.261 409.221 258.176 409.227 257.162L409.237 256.044C409.241 255.702 409.142 255.473 408.891 255.25C408.324 254.746 407.799 254.177 407.315 253.547C407.049 253.201 406.997 252.827 407.167 252.445ZM413.022 258.094L413.398 258.333C413.593 258.454 413.629 258.586 413.62 258.862V262.904L413.615 263.179C413.616 263.226 413.617 263.267 413.621 263.306C413.667 263.754 413.889 264.004 414.3 264.038C414.668 264.068 414.95 263.748 414.957 263.269C414.97 262.213 414.975 261.46 414.968 260.772L414.953 259.963C414.939 259.36 415.136 259.208 415.666 259.5L415.992 259.673C416.536 259.95 417.092 260.176 417.656 260.346C418.057 260.467 418.212 260.691 418.204 261.121C418.198 261.477 418.194 261.803 418.192 262.179L418.195 265.399L418.203 265.543C418.242 265.965 418.465 266.192 418.86 266.199C419.225 266.204 419.452 265.988 419.513 265.598C419.535 265.457 419.54 265.318 419.539 265.089L419.542 263.459C419.544 262.929 419.543 262.548 419.539 262.191L419.531 261.656C419.523 261.169 419.68 261.025 420.151 261.171L420.667 261.323C421.188 261.468 421.719 261.593 422.257 261.698C422.722 261.789 422.897 261.986 422.886 262.45C422.873 263.027 422.869 263.625 422.87 264.37L422.878 266.454C422.879 266.595 422.888 266.702 422.905 266.802C422.977 267.195 423.198 267.398 423.569 267.389C423.941 267.38 424.151 267.169 424.203 266.773C424.218 266.659 424.223 266.546 424.223 266.362L424.226 264.57L424.219 262.708C424.216 262.251 424.346 262.085 424.789 262.169C425.721 262.345 426.582 262.441 427.413 262.452C427.791 262.456 427.934 262.639 427.93 263.032C427.926 263.365 427.925 263.704 427.923 264.076L427.925 266.935L427.919 267.208C427.92 267.254 427.922 267.295 427.928 267.333C427.991 267.795 428.219 268.035 428.625 268.017C429.043 267.996 429.261 267.74 429.262 267.287L429.272 265.179C429.273 264.783 429.272 264.457 429.269 264.153L429.253 263.27C429.239 262.717 429.433 262.53 429.984 262.55C430.25 262.559 430.484 262.564 430.797 262.565L432.377 262.566L433.114 262.577C433.546 262.59 433.93 262.611 434.303 262.647C435.584 262.771 436.425 262.973 437.178 263.422L437.375 263.536C439.092 264.482 440.867 264.449 442.909 263.568C444.628 262.826 446.222 262.025 448.467 260.797L449.898 260.006C450.357 259.751 450.503 259.373 450.301 259.026C450.1 258.678 449.697 258.601 449.241 258.848L447.39 259.857C445.566 260.842 444.487 261.388 443.271 261.921L442.919 262.074C442.361 262.311 441.782 262.522 441.189 262.703C440.211 263.001 439.284 262.938 438.418 262.486C436.681 261.582 434.735 261.198 432.458 261.227C428.391 261.28 425.371 261.065 422.448 260.392C419.794 259.78 417.474 258.974 415.37 257.889C412.783 256.552 410.719 255.073 409.04 253.254C408.745 252.936 408.711 252.678 408.902 252.279C410.322 249.301 412.122 247.1 414.54 245.603C417.635 243.687 421.078 243.303 424.982 244.259C425.489 244.384 425.889 244.532 426.605 244.848L427.619 245.301C427.824 245.39 427.988 245.455 428.171 245.523L428.578 245.672C431.576 246.723 434.82 247.131 438.708 247.068C441.061 247.029 443.217 246.756 446.482 246.132L447.36 245.961L448.223 245.788L449.13 245.604L449.649 245.501C452.777 244.919 455.562 245.076 458.152 246.108C460.817 247.169 462.736 249.104 463.967 251.871C464.338 252.703 464.611 253.599 464.808 254.594L464.895 255.01C465.592 258.188 467.075 261.164 469.344 264.189L475.692 272.653C476.175 273.295 476.552 273.445 476.891 273.17C477.229 272.896 477.189 272.421 476.756 271.84C476.487 271.48 476.237 271.148 475.958 270.783L473.081 267.054C471.827 265.427 471.025 264.355 470.255 263.265L469.648 262.391C467.804 259.706 466.582 256.833 465.986 253.715L465.932 253.453C464.843 248.401 460.436 244.551 455.185 244.027C452.567 243.766 449.946 244.035 446.552 244.788L445.947 244.917C441.719 245.792 437.591 245.987 433.54 245.46C431.684 245.22 429.896 244.692 427.455 243.749L427.13 243.626C421.281 241.461 416.116 242.21 411.671 246.149C409.919 247.701 408.634 249.684 407.352 252.529C407.213 252.84 407.254 253.135 407.476 253.423C407.952 254.044 408.468 254.604 409.025 255.099C409.321 255.361 409.445 255.647 409.439 256.046C409.43 256.78 409.426 257.527 409.426 258.339L409.436 260.537C409.44 261.087 409.672 261.367 410.092 261.366C410.506 261.363 410.747 261.08 410.773 260.539C410.776 260.494 410.778 260.453 410.778 260.407L410.776 256.836L410.932 256.75L413.022 258.094Z" fill="#F5F5F5"/>
<path fill-rule="evenodd" clip-rule="evenodd" d="M452.694 277.31C454.222 274.899 454.514 272.278 453.886 269.527C453.739 268.888 453.414 268.603 452.949 268.703C452.492 268.802 452.275 269.194 452.41 269.836C452.846 271.924 452.731 273.944 451.753 275.878C451.21 276.951 450.43 277.828 449.542 278.621C449.331 278.811 449.082 278.907 448.809 278.979C439.695 281.393 430.584 283.815 421.47 286.229C419.439 286.768 417.728 285.881 416.966 283.923C416.604 282.994 416.916 282.328 417.888 282.074C418.784 281.841 419.673 281.588 420.549 281.285C424.053 280.075 427.208 278.264 429.985 275.802C431.3 274.635 432.571 273.426 433.567 271.968C434.444 270.684 434.872 269.235 434.932 267.69C434.977 266.53 434.972 265.365 434.969 264.203C434.967 263.586 434.645 263.221 434.177 263.239C433.736 263.256 433.445 263.619 433.435 264.203C433.418 265.287 433.44 266.371 433.397 267.454C433.33 269.209 432.683 270.74 431.548 272.081C430.138 273.745 428.533 275.188 426.753 276.444C426.662 276.508 426.582 276.615 426.37 276.573C426.37 275.473 426.371 274.36 426.368 273.247C426.367 273.031 426.372 272.811 426.332 272.601C426.252 272.178 425.982 271.936 425.545 271.959C425.106 271.981 424.867 272.254 424.837 272.684C424.813 273.017 424.824 273.354 424.823 273.688C424.822 274.851 424.808 276.014 424.83 277.177C424.839 277.561 424.73 277.801 424.373 277.966C423.766 278.247 423.168 278.552 422.58 278.872C422.211 279.074 422.069 279.036 422.078 278.576C422.098 277.473 422.085 276.369 422.084 275.266C422.083 275.089 422.081 274.91 422.059 274.735C422.003 274.297 421.726 274.051 421.305 274.054C420.882 274.055 420.6 274.312 420.561 274.746C420.527 275.136 420.536 275.533 420.535 275.926C420.531 277.03 420.524 278.135 420.54 279.238C420.544 279.559 420.459 279.747 420.126 279.838C419.632 279.972 419.148 280.142 418.666 280.314C418.249 280.463 418.074 280.398 418.086 279.893C418.118 278.633 418.097 277.371 418.097 276.11C418.097 275.992 418.106 275.873 418.097 275.755C418.056 275.223 417.748 274.868 417.312 274.895C416.781 274.928 416.555 275.259 416.554 275.765C416.551 277.204 416.539 278.642 416.559 280.081C416.564 280.629 416.489 281.058 416.043 281.487C415.261 282.239 415.075 283.207 415.435 284.264C416.407 287.107 419.039 288.521 421.962 287.746C429.059 285.863 436.155 283.986 443.243 282.073C443.896 281.897 444.36 282.028 444.871 282.395C449.679 285.848 451.987 290.564 452 296.446C452.004 298.85 452 301.254 451.999 303.659C451.999 303.956 452 304.248 452.159 304.517C452.389 304.906 452.728 305.072 453.155 304.957C453.551 304.851 453.693 304.53 453.693 304.138C453.693 302.62 453.709 301.103 453.689 299.586C453.664 297.676 453.785 295.765 453.519 293.859C452.807 288.77 450.451 284.653 446.326 281.568C446.263 281.521 446.203 281.474 446.05 281.355C446.812 281.147 447.486 280.885 448.185 280.788C450.365 280.484 451.62 279.003 452.694 277.31Z" fill="#F5F5F5"/>
<path fill-rule="evenodd" clip-rule="evenodd" d="M434.173 263.138L434.272 263.14C434.756 263.171 435.069 263.583 435.071 264.203V265.863C435.067 266.548 435.055 267.131 435.033 267.694C434.971 269.305 434.515 270.759 433.65 272.026C432.78 273.299 431.74 274.381 430.052 275.878C427.293 278.325 424.135 280.155 420.582 281.381C419.783 281.658 418.939 281.905 417.914 282.172C417.01 282.408 416.717 283.004 417.06 283.886C417.806 285.802 419.469 286.656 421.445 286.131L448.783 278.881C449.09 278.801 449.299 278.704 449.475 278.546C450.46 277.666 451.17 276.806 451.662 275.833C452.582 274.017 452.77 272.053 452.311 269.857C452.17 269.18 452.398 268.719 452.928 268.605C453.456 268.491 453.827 268.818 453.985 269.505C454.644 272.391 454.27 275.014 452.78 277.365C451.412 279.522 450.136 280.619 448.199 280.888L448.055 280.911C447.958 280.927 447.858 280.947 447.754 280.971L447.648 280.996C447.584 281.011 447.527 281.025 447.46 281.043L446.27 281.398L446.692 281.72C450.618 284.769 452.916 288.813 453.619 293.845C453.759 294.849 453.799 295.728 453.797 297.261L453.788 298.726L453.797 300.184L453.794 304.138C453.794 304.614 453.597 304.943 453.182 305.055C452.718 305.18 452.329 305.004 452.072 304.569C451.927 304.323 451.898 304.117 451.898 303.659L451.896 296.086C451.79 290.344 449.447 285.806 444.812 282.478C444.295 282.106 443.861 282.012 443.27 282.171L442.424 282.399L421.989 287.844C419.019 288.631 416.331 287.195 415.34 284.298C414.961 283.187 415.174 282.183 415.973 281.414L416.062 281.324C416.369 280.991 416.464 280.648 416.458 280.083C416.454 279.804 416.452 279.521 416.45 279.223L416.447 277.819L416.453 275.765C416.455 275.181 416.743 274.829 417.306 274.795C417.797 274.763 418.153 275.158 418.199 275.748C418.2 275.766 418.201 275.785 418.202 275.804V275.935L418.2 276.044L418.205 278.418C418.205 278.74 418.203 279.027 418.2 279.299L418.187 279.896C418.178 280.303 418.255 280.354 418.632 280.22L419.036 280.076C419.465 279.927 419.77 279.83 420.1 279.741C420.364 279.669 420.443 279.544 420.439 279.24C420.435 278.952 420.432 278.664 420.431 278.353L420.434 275.497C420.435 275.18 420.441 274.959 420.461 274.737C420.504 274.254 420.827 273.955 421.305 273.953C421.779 273.95 422.097 274.236 422.16 274.723C422.18 274.875 422.184 275.008 422.185 275.266L422.19 277.445C422.19 277.652 422.188 277.847 422.187 278.034L422.179 278.65C422.18 278.941 422.234 278.946 422.532 278.784L422.988 278.54C423.443 278.301 423.889 278.08 424.331 277.875C424.633 277.734 424.738 277.546 424.73 277.179C424.725 276.943 424.722 276.722 424.72 276.486L424.721 273.257C424.721 273.116 424.722 272.997 424.726 272.887L424.736 272.677C424.771 272.186 425.059 271.882 425.54 271.858C426.02 271.833 426.341 272.101 426.432 272.582C426.457 272.714 426.466 272.848 426.469 273.029L426.47 276.481L426.496 276.48C426.527 276.476 426.554 276.465 426.584 276.446L427.142 276.04C428.765 274.845 430.207 273.508 431.472 272.016C432.618 270.661 433.232 269.146 433.297 267.45C433.308 267.151 433.315 266.884 433.319 266.545L433.326 265.448L433.335 264.202C433.345 263.574 433.669 263.158 434.173 263.138ZM434.864 264.088C434.827 263.604 434.565 263.325 434.181 263.341L434.095 263.349C433.758 263.406 433.545 263.717 433.537 264.205L433.523 266.398C433.522 266.606 433.518 266.785 433.514 266.955L433.499 267.458C433.433 269.2 432.801 270.758 431.626 272.146C430.235 273.788 428.632 275.243 426.812 276.528L426.694 276.615C426.593 276.68 426.494 276.701 426.351 276.673L426.269 276.573V274.25L426.267 273.084L426.263 272.912C426.259 272.799 426.25 272.708 426.233 272.621C426.16 272.236 425.927 272.04 425.55 272.06C425.175 272.079 424.965 272.299 424.938 272.691C424.926 272.856 424.922 273.025 424.923 273.257L424.92 276.036L424.932 277.175C424.941 277.618 424.796 277.882 424.416 278.059C423.831 278.329 423.237 278.629 422.629 278.961C422.178 279.207 421.967 279.098 421.977 278.574C421.981 278.397 421.983 278.218 421.985 278.031L421.988 276.757L421.977 274.967C421.974 274.886 421.968 274.819 421.959 274.748C421.909 274.362 421.677 274.153 421.306 274.155C420.933 274.157 420.697 274.375 420.663 274.755C420.651 274.883 420.644 275.013 420.64 275.163L420.636 275.497L420.632 278.114L420.641 279.237C420.646 279.627 420.513 279.838 420.153 279.936C419.875 280.011 419.613 280.093 419.276 280.208L418.701 280.41C418.195 280.59 417.972 280.446 417.985 279.891C417.997 279.433 418.002 278.98 418.003 278.417L417.996 276.11L418 275.867L417.996 275.763C417.959 275.275 417.687 274.973 417.319 274.997C416.868 275.024 416.657 275.282 416.655 275.766L416.651 278.918L416.66 280.08C416.668 280.748 416.536 281.153 416.114 281.56L415.995 281.681C415.353 282.376 415.197 283.252 415.531 284.232C416.488 287.029 419.07 288.409 421.937 287.648L432.444 284.859L443.218 281.976C443.869 281.8 444.365 281.908 444.93 282.313C449.715 285.749 452.089 290.468 452.102 296.446L452.1 303.659C452.1 304.081 452.125 304.262 452.247 304.466C452.459 304.826 452.757 304.96 453.13 304.86C453.446 304.775 453.592 304.53 453.592 304.138L453.597 300.807L453.585 299.239L453.594 297.262C453.597 295.929 453.567 295.093 453.466 294.241L453.419 293.874C452.705 288.766 450.334 284.691 446.265 281.649L445.989 281.435L446.024 281.258C446.107 281.235 446.189 281.212 446.277 281.186L447.409 280.848C447.477 280.829 447.534 280.814 447.601 280.799L447.868 280.74C447.971 280.719 448.072 280.702 448.171 280.688L448.376 280.656C450.129 280.348 451.319 279.29 452.608 277.256C454.069 274.953 454.435 272.386 453.788 269.55C453.652 268.96 453.374 268.716 452.97 268.802C452.561 268.891 452.388 269.239 452.509 269.816L452.569 270.119C452.958 272.237 452.741 274.149 451.844 275.924C451.338 276.923 450.612 277.802 449.61 278.697C449.407 278.879 449.17 278.989 448.835 279.077L421.497 286.327C419.421 286.878 417.655 285.971 416.872 283.96C416.485 282.966 416.84 282.244 417.862 281.977C418.883 281.71 419.722 281.464 420.516 281.19C424.043 279.972 427.178 278.156 429.918 275.727C431.595 274.239 432.625 273.169 433.484 271.912C434.326 270.677 434.77 269.26 434.831 267.686C434.857 267.032 434.867 266.351 434.87 265.511L434.868 264.244L434.864 264.088Z" fill="#F5F5F5"/>
<path fill-rule="evenodd" clip-rule="evenodd" d="M416.148 247.214C415.244 247.165 413.606 248.781 413.627 249.797C413.637 249.986 413.726 250.267 414.014 250.36C414.362 250.471 414.758 250.448 414.97 250.109C415.384 249.443 415.902 248.916 416.59 248.532C416.891 248.365 416.929 248.022 416.819 247.693C416.713 247.372 416.466 247.231 416.148 247.214Z" fill="#F5F5F5"/>
<path fill-rule="evenodd" clip-rule="evenodd" d="M413.526 249.799C413.504 248.744 415.173 247.06 416.154 247.113L416.264 247.124C416.584 247.171 416.812 247.35 416.915 247.66C417.051 248.066 416.967 248.438 416.64 248.62C415.988 248.984 415.476 249.488 415.056 250.162C414.836 250.514 414.426 250.597 413.982 250.456C413.692 250.362 413.542 250.097 413.526 249.799ZM416.723 247.724C416.637 247.463 416.442 247.331 416.143 247.315C415.281 247.269 413.709 248.856 413.728 249.791C413.74 250.011 413.846 250.2 414.045 250.264C414.408 250.38 414.721 250.316 414.885 250.055C415.322 249.353 415.858 248.825 416.541 248.444C416.77 248.316 416.831 248.047 416.723 247.724Z" fill="white"/>
<path fill-rule="evenodd" clip-rule="evenodd" d="M445.709 253.955C445.709 255.677 444.313 257.072 442.592 257.072C440.871 257.072 439.476 255.677 439.476 253.955C439.476 252.234 440.871 250.839 442.592 250.839C444.313 250.839 445.709 252.234 445.709 253.955Z" fill="#F5F5F5"/>
<path fill-rule="evenodd" clip-rule="evenodd" d="M277.666 85.3467L266.879 85.9277C263.562 86.1058 260.62 87.6183 258.555 89.9045C256.503 92.2037 255.316 95.2903 255.495 98.6075C255.851 105.255 261.527 110.338 268.174 109.98L278.96 109.4" fill="black"/>
<path d="M277.6 84.1346C278.269 84.099 278.842 84.612 278.877 85.2821C278.911 85.9117 278.459 86.4556 277.847 86.547L277.73 86.5592L266.944 87.1402C264.042 87.2964 261.372 88.5969 259.461 90.7132C257.557 92.8464 256.55 95.6401 256.706 98.543C257.023 104.434 261.985 108.962 267.856 108.78L268.108 108.768L278.894 108.188C279.563 108.152 280.136 108.665 280.171 109.336C280.205 109.965 279.753 110.509 279.141 110.6L279.025 110.613L268.238 111.193C260.92 111.587 254.675 105.988 254.282 98.6733C254.091 95.123 255.323 91.7029 257.654 89.0914C259.923 86.5802 263.061 85.007 266.482 84.7383L266.814 84.7156L277.6 84.1346Z" fill="black"/>
<path fill-rule="evenodd" clip-rule="evenodd" d="M299.98 106.539L297.725 104.515C296.415 103.338 294.399 103.446 293.223 104.757L291.198 107.011C290.15 108.179 288.679 108.883 287.112 108.968L278.016 109.457C277.916 109.463 277.807 109.468 277.706 109.464C271.202 109.651 265.695 104.619 265.343 98.0784C265.164 94.7571 266.349 91.6835 268.405 89.3827C270.472 87.0917 273.401 85.5831 276.722 85.4051L287.366 84.8321L304.146 83.929C310.776 83.5721 316.835 88.6827 317.179 95.3123C317.351 98.6239 316.167 101.689 314.115 103.985C312.049 106.276 309.119 107.783 305.798 107.962L304.253 108.045C302.686 108.13 301.148 107.588 299.98 106.539Z" fill="#F5F5F5"/>
<path fill-rule="evenodd" clip-rule="evenodd" d="M276.656 84.1929L304.081 82.7168C311.438 82.321 318.015 88.003 318.391 95.2492C318.575 98.7939 317.345 102.192 315.016 104.797C312.674 107.395 309.418 108.983 305.863 109.175L304.318 109.257C302.43 109.359 300.576 108.706 299.169 107.442L296.914 105.418C296.103 104.689 294.855 104.756 294.126 105.568L292.102 107.822C290.837 109.23 289.066 110.078 287.176 110.18L277.959 110.675C277.921 110.677 277.887 110.678 277.853 110.679L277.712 110.678L277.482 110.682C270.506 110.749 264.656 105.375 264.147 98.4022L264.13 98.1432C263.939 94.5889 265.169 91.1818 267.504 88.5695C269.847 85.9717 273.104 84.383 276.656 84.1929ZM313.21 103.175C315.113 101.046 316.117 98.2735 315.966 95.3755L315.951 95.1303C315.511 89.3634 310.165 84.8209 304.212 85.1414L276.787 86.6175C273.882 86.7729 271.225 88.0693 269.31 90.1912C267.402 92.3269 266.398 95.1076 266.555 98.0129C266.871 103.881 271.81 108.419 277.671 108.25L277.806 108.251L287.046 107.756C288.292 107.688 289.462 107.129 290.295 106.2L292.32 103.946C293.943 102.136 296.727 101.986 298.536 103.612L300.791 105.636C301.72 106.469 302.942 106.9 304.188 106.832L305.732 106.75C308.638 106.594 311.296 105.297 313.21 103.175Z" fill="black"/>
<path fill-rule="evenodd" clip-rule="evenodd" d="M276.671 129.262C274.702 129.737 271.344 130.277 267.291 129.568C264.084 129.008 261.608 127.869 260.003 126.97C260.954 128.88 262.542 131.48 265.14 133.967C269.723 138.351 274.815 139.863 277.32 140.422C277.42 138.877 277.452 137.159 277.363 135.296C277.256 133.056 276.994 131.032 276.671 129.262Z" fill="black"/>
<path fill-rule="evenodd" clip-rule="evenodd" d="M264.301 134.844C261.949 132.592 260.213 130.116 258.916 127.51C258.384 126.441 259.554 125.327 260.596 125.91C262.628 127.049 264.898 127.918 267.5 128.372C270.716 128.935 273.662 128.739 276.386 128.082C277.064 127.919 277.74 128.358 277.865 129.045C278.23 131.042 278.474 133.101 278.575 135.237C278.661 137.032 278.642 138.785 278.531 140.5C278.484 141.244 277.783 141.77 277.055 141.607C272.595 140.612 268.22 138.593 264.301 134.844ZM263.233 129.762L263.039 129.691L263.321 130.078C264.095 131.121 264.975 132.129 265.98 133.089C269.077 136.053 272.5 137.83 276.016 138.838L276.178 138.883L276.195 138.233C276.207 137.523 276.202 136.805 276.179 136.08L276.151 135.353C276.078 133.835 275.93 132.356 275.714 130.912L275.683 130.715L275.281 130.788C272.872 131.199 270.31 131.268 267.567 130.844L267.082 130.764C265.721 130.526 264.441 130.186 263.233 129.762Z" fill="black"/>
<path fill-rule="evenodd" clip-rule="evenodd" d="M91.147 408.464H147.462C148.132 408.464 148.675 409.008 148.675 409.678V422.54C148.675 423.211 148.132 423.754 147.462 423.754H91.147C90.4764 423.754 89.9329 423.211 89.9329 422.54V409.678C89.9329 409.008 90.4764 408.464 91.147 408.464ZM146.247 421.326V410.892H92.3601V421.326H146.247Z" fill="black"/>
<path d="M143.452 421.332C144.082 421.289 144.632 421.734 144.733 422.344L144.746 422.46L148.848 482.776L149.804 496.744L153.606 552.608C153.652 553.273 153.155 553.842 152.505 553.9L152.396 553.905H86.2135C85.5476 553.905 85.0136 553.371 84.9998 552.719L85.0023 552.608L88.8052 496.744L89.7609 482.776L93.8631 422.46C93.9084 421.792 94.4878 421.286 95.1563 421.332C95.7859 421.375 96.2707 421.89 96.2877 422.508L96.2852 422.625L92.183 482.942L91.2272 496.909L87.5127 551.477H151.096L147.382 496.91L146.426 482.941L142.324 422.625C142.278 421.956 142.783 421.377 143.452 421.332Z" fill="black"/>
<path d="M78.8155 357.049L79.1092 357.246L79.6501 357.616C79.9088 357.795 80.1538 357.969 80.4022 358.151C81.7049 359.102 82.9315 360.134 84.2342 361.416L84.9383 362.116C89.5317 366.733 92.1245 370.39 93.4979 375.716C94.3549 379.042 94.2975 381.231 93.591 385.036L93.3716 386.192C92.8213 389.134 92.7793 390.9 93.4307 393.281C94.6649 397.789 97.9489 401.585 102.941 404.821C103.503 405.186 103.663 405.938 103.299 406.5C102.934 407.063 102.182 407.223 101.62 406.858C96.1718 403.326 92.5025 399.086 91.0887 393.922C90.3547 391.239 90.3704 389.193 90.9114 386.149L91.1283 384.993C91.8462 381.251 91.9263 379.346 91.1469 376.322C89.8463 371.279 87.2719 367.812 82.5313 363.147C81.3157 361.95 80.1801 360.994 78.971 360.112C78.6606 359.885 78.3539 359.669 78.0118 359.436L76.0651 358.133C74.2599 356.903 73.1326 355.882 71.9845 354.276C71.7686 353.974 71.5562 353.655 71.3461 353.317C68.2052 348.257 66.9108 342.184 69.6364 339.022C71.4505 336.918 74.5353 336.441 78.4052 337.028C79.7243 337.228 81.0624 337.545 82.3671 337.937C83.2133 338.191 83.9164 338.436 84.4072 338.627C97.1575 343.566 107.206 359.394 106.441 373.99C106.332 376.045 106.068 377.67 105.54 379.959L105.054 382.014C105.004 382.232 104.96 382.431 104.918 382.623C104.326 385.371 104.259 387.422 104.852 390.171C106.023 395.591 109.119 400.123 113.558 404.123C114.056 404.573 114.096 405.34 113.647 405.838C113.198 406.336 112.43 406.376 111.932 405.927C107.148 401.616 103.773 396.675 102.479 390.683C101.838 387.715 101.879 385.405 102.454 382.545L102.589 381.906L103.068 379.866C103.64 377.454 103.91 375.881 104.016 373.863C104.727 360.306 95.2945 345.447 83.5293 340.89L83.2089 340.77C82.801 340.621 82.2767 340.445 81.6692 340.262C80.4666 339.901 79.2366 339.61 78.0409 339.428C74.9193 338.955 72.5893 339.315 71.4751 340.607C69.6872 342.681 70.7777 347.798 73.4088 352.036C73.5915 352.33 73.7747 352.606 73.9596 352.865C74.8599 354.124 75.7284 354.938 77.1418 355.926L77.8081 356.379C78.2564 356.679 78.8758 357.089 78.8155 357.049Z" fill="black"/>
<path d="M105.853 272.959C109.16 267.37 117.587 266.045 123.25 269.82C128.31 273.193 131.01 279.743 130.611 286.493C130.298 291.796 128.405 296.93 124.906 303.162L123.51 305.601C119.55 312.508 118.213 316.246 118.99 320.485C119.327 322.318 119.949 323.756 121.556 326.748L122.21 327.963C122.413 328.344 122.573 328.648 122.735 328.965C126.187 335.725 127.879 343.372 127.6 350.958C127.424 355.75 126.733 359.545 124.833 367.339L123.739 371.8C123.454 372.988 123.241 373.908 123.021 374.903C120.922 384.43 121.465 393.194 124.389 404.78C124.553 405.43 124.159 406.089 123.509 406.253C122.86 406.418 122.199 406.024 122.035 405.374C119.082 393.672 118.482 384.659 120.531 374.932L120.65 374.381C120.889 373.298 121.12 372.306 121.44 370.979L122.687 365.885C124.387 358.841 125.012 355.268 125.174 350.869C125.431 343.885 123.92 336.841 120.827 330.576L120.572 330.07C120.47 329.868 120.366 329.67 120.25 329.45L119.066 327.24C117.594 324.454 116.971 322.932 116.602 320.923C115.719 316.105 117.06 312.089 120.953 305.187L122.502 302.482C126.021 296.308 127.892 291.353 128.187 286.35C128.539 280.405 126.184 274.694 121.904 271.84C117.341 268.799 110.499 269.874 107.943 274.195C106.703 276.292 106.371 279.038 106.85 282.074L106.907 282.413C107.189 284.014 107.558 285.315 108.426 287.943L109.167 290.184C109.286 290.551 109.383 290.861 109.489 291.204C111.578 298.03 112.123 304.78 110.832 310.933L110.735 311.376C110.269 313.415 109.591 315.137 108.113 318.336L107.315 320.056C105.511 323.982 104.813 326.052 104.626 328.567C104.361 332.136 105.336 335.039 108.251 340.661L109.631 343.3C110.184 344.366 110.485 344.981 110.861 345.8C111.104 346.328 111.323 346.832 111.522 347.325C114.772 355.384 116.455 362.01 116.603 368.783C116.723 374.324 115.968 379.767 114.335 384.767C114.126 385.404 113.44 385.752 112.803 385.543C112.166 385.335 111.819 384.65 112.026 384.013C113.573 379.28 114.29 374.11 114.175 368.836C114.035 362.402 112.42 356.043 109.27 348.233C109.133 347.891 108.984 347.543 108.822 347.181L108.656 346.815C108.277 345.991 107.974 345.376 107.376 344.225L106.085 341.758C103.039 335.88 101.943 332.68 102.187 328.651L102.205 328.387C102.425 325.419 103.228 323.102 105.271 318.689L106.047 317.018C107.453 313.958 108.047 312.382 108.456 310.435C109.622 304.878 109.172 298.734 107.333 292.468L107.087 291.655C107.02 291.44 106.953 291.229 106.878 290.996L105.916 288.081C105.154 285.745 104.8 284.447 104.516 282.835C103.864 279.14 104.236 275.695 105.853 272.959Z" fill="black"/>
<path d="M160.002 315.935C164.464 312.972 170.572 312.978 174.203 316.361C178.358 320.234 178.663 327.435 176.166 333.876C173.277 341.325 168.983 348.53 163.425 355.552L162.569 356.62C160.804 358.8 159.192 360.658 156.14 364.069L153.087 367.479C150.449 370.439 148.938 372.194 147.309 374.219L145.168 376.906L144.949 377.184C140.976 382.257 138.641 385.987 137.257 390.027C135.521 395.098 135.648 400.086 137.991 405.345C138.265 405.958 137.99 406.675 137.377 406.949C136.764 407.221 136.047 406.946 135.774 406.334C133.174 400.498 133.03 394.876 134.961 389.239C136.362 385.146 138.616 381.434 142.306 376.631L143.33 375.316L145.417 372.696C147.18 370.507 148.795 368.638 151.777 365.301L155.337 361.323C157.89 358.456 159.337 356.767 160.991 354.71C166.666 347.657 171.017 340.439 173.902 332.998C176.08 327.381 175.818 321.184 172.548 318.138C169.804 315.581 164.931 315.576 161.345 317.958C158.173 320.065 155.867 323.66 154.257 328.457C153.172 331.692 152.528 334.652 151.667 339.95L150.979 344.28C149.702 352.156 148.756 355.96 146.707 360.383L146.478 360.87C144.943 364.083 143.226 366.655 139.607 371.481L138.103 373.483C136.62 375.461 135.797 376.598 134.912 377.911L134.796 378.083C129.055 386.645 127.374 394.865 131.481 401.274C131.842 401.839 131.678 402.59 131.114 402.951C130.549 403.313 129.798 403.148 129.436 402.584C124.744 395.26 126.515 386.231 132.555 377.07L133.017 376.378C133.845 375.157 134.639 374.059 135.961 372.293L137.655 370.038C141.359 365.098 142.999 362.613 144.504 359.362L144.727 358.874C146.617 354.657 147.497 350.786 148.811 342.46L149.203 339.981C150.095 334.44 150.753 331.33 151.865 327.959L151.955 327.685C153.72 322.422 156.309 318.388 160.002 315.935Z" fill="black"/>
<path fill-rule="evenodd" clip-rule="evenodd" d="M83.4876 299.108C78.1022 290.179 63.1047 287.614 48.2889 293.482C47.6656 293.729 47.3605 294.434 47.6074 295.057C47.8542 295.681 48.5596 295.986 49.183 295.739C63.0097 290.263 76.7332 292.61 81.4086 300.362L81.5595 300.619C83.4864 303.995 84.052 308.632 82.9754 312.645L82.9564 312.711L82.6928 312.507C81.5995 311.677 80.4127 310.994 79.1271 310.475C78.8011 310.344 78.5707 310.253 78.352 310.17L77.9528 310.024C76.0577 309.35 74.3221 309.057 72.5973 309.324C71.651 309.472 70.7602 309.791 69.9409 310.3C67.1778 312.017 65.5205 315.538 66.4506 318.687C67.3976 321.892 70.7232 323.779 74.0536 323.872C76.8491 323.951 79.2968 322.59 81.393 320.323C81.9828 319.686 82.5117 319.008 82.986 318.313L83.1366 318.09C83.3753 317.73 83.5587 317.427 83.769 317.063L83.8223 316.966L83.9312 317.097C84.8485 318.231 85.6709 319.523 86.4028 320.954C87.7513 323.591 88.5602 326.15 89.0822 328.577C89.2231 329.233 89.8687 329.65 90.5242 329.51C91.1794 329.368 91.597 328.723 91.4554 328.067C90.893 325.451 90.0255 322.706 88.5643 319.849L88.369 319.474C87.3817 317.61 86.2401 315.952 84.9262 314.537L85.0034 314.319C86.698 309.325 86.0485 303.354 83.4876 299.108ZM77.1397 312.312L77.2621 312.355C77.382 312.399 77.4959 312.441 77.6208 312.49L78.219 312.727L78.5327 312.859C79.7787 313.401 80.9226 314.138 81.9686 315.049L82.0508 315.123L81.9642 315.3C81.8693 315.486 81.77 315.669 81.666 315.85C81.4416 316.238 81.2568 316.54 80.9804 316.945C80.57 317.547 80.1135 318.131 79.6104 318.675C77.9451 320.476 76.1014 321.501 74.1216 321.445C71.7379 321.378 69.3826 320.043 68.779 317.999C68.1819 315.978 69.3304 313.538 71.2223 312.363C71.7566 312.031 72.3381 311.822 72.9704 311.724C74.2217 311.529 75.5904 311.76 77.1397 312.312Z" fill="black"/>
<path d="M164.976 291.322C165.627 291.164 166.284 291.563 166.442 292.215C166.601 292.866 166.201 293.523 165.55 293.681C164.419 293.956 163.223 294.304 161.753 294.836C159.592 295.617 157.393 296.613 155.22 297.857C149.346 301.218 144.488 305.887 141.22 312.095C137.82 318.553 136.867 325.014 137.297 331.236C137.343 331.904 136.838 332.484 136.17 332.531C135.501 332.577 134.921 332.072 134.875 331.403C134.416 324.769 135.432 317.874 139.071 310.964C142.571 304.316 147.763 299.327 154.014 295.75C156.314 294.433 158.64 293.38 160.928 292.552C162.488 291.988 163.766 291.616 164.976 291.322Z" fill="black"/>
<path fill-rule="evenodd" clip-rule="evenodd" d="M148.592 496.826H90.0161L90.9721 480.772H147.637L148.592 496.826Z" fill="black"/>
<path fill-rule="evenodd" clip-rule="evenodd" d="M108.497 469.3C108.497 471.753 106.508 473.742 104.055 473.742C101.601 473.742 99.6121 471.753 99.6121 469.3C99.6121 466.847 101.601 464.857 104.055 464.857C106.508 464.857 108.497 466.847 108.497 469.3Z" fill="black"/>
<path fill-rule="evenodd" clip-rule="evenodd" d="M123.746 469.3C123.746 471.753 121.757 473.742 119.304 473.742C116.851 473.742 114.861 471.753 114.861 469.3C114.861 466.847 116.851 464.857 119.304 464.857C121.757 464.857 123.746 466.847 123.746 469.3Z" fill="black"/>
<path fill-rule="evenodd" clip-rule="evenodd" d="M138.996 469.3C138.996 471.753 137.007 473.742 134.554 473.742C132.101 473.742 130.111 471.753 130.111 469.3C130.111 466.847 132.101 464.857 134.554 464.857C137.007 464.857 138.996 466.847 138.996 469.3Z" fill="black"/>
<path fill-rule="evenodd" clip-rule="evenodd" d="M108.497 537.203C108.497 539.657 106.508 541.645 104.055 541.645C101.601 541.645 99.6121 539.657 99.6121 537.203C99.6121 534.75 101.601 532.761 104.055 532.761C106.508 532.761 108.497 534.75 108.497 537.203Z" fill="black"/>
<path fill-rule="evenodd" clip-rule="evenodd" d="M123.746 537.203C123.746 539.657 121.757 541.645 119.304 541.645C116.851 541.645 114.861 539.657 114.861 537.203C114.861 534.75 116.851 532.761 119.304 532.761C121.757 532.761 123.746 534.75 123.746 537.203Z" fill="black"/>
<path fill-rule="evenodd" clip-rule="evenodd" d="M138.996 537.203C138.996 539.657 137.007 541.645 134.554 541.645C132.101 541.645 130.111 539.657 130.111 537.203C130.111 534.75 132.101 532.761 134.554 532.761C137.007 532.761 138.996 534.75 138.996 537.203Z" fill="black"/>
<path d="M94.4942 516.413C94.8123 516.243 95.1861 516.225 95.5163 516.356L95.6377 516.413L101.13 519.345L106.62 516.413C106.938 516.243 107.312 516.224 107.643 516.356L107.764 516.413L113.254 519.344L118.743 516.413C119.06 516.243 119.435 516.224 119.765 516.357L119.886 516.413L125.373 519.344L130.861 516.413C131.178 516.243 131.553 516.224 131.883 516.357L132.004 516.413L137.49 519.344L142.976 516.413C143.293 516.243 143.668 516.224 143.998 516.357L144.119 516.413L150.179 519.65C150.771 519.966 150.994 520.702 150.678 521.293C150.381 521.849 149.712 522.08 149.141 521.842L149.036 521.792L143.547 518.86L138.063 521.791C137.745 521.961 137.371 521.98 137.04 521.848L136.919 521.792L131.432 518.86L125.945 521.792C125.628 521.961 125.253 521.98 124.923 521.848L124.802 521.792L119.314 518.86L113.826 521.792C113.509 521.961 113.134 521.98 112.804 521.848L112.683 521.792L107.193 518.859L101.703 521.792C101.386 521.961 101.012 521.98 100.682 521.848L100.56 521.792L95.0656 518.859L89.5729 521.792C89.0162 522.089 88.3321 521.908 87.9904 521.393L87.9304 521.293C87.6332 520.736 87.8138 520.052 88.3291 519.71L88.4296 519.65L94.4942 516.413Z" fill="black"/>
<path d="M98.301 444.454C98.6619 444.224 99.1143 444.204 99.4922 444.391L99.6031 444.454L104.047 447.277L108.487 444.454C108.848 444.224 109.301 444.203 109.679 444.391L109.79 444.454L114.225 447.277L118.665 444.454C119.026 444.224 119.479 444.203 119.857 444.391L119.968 444.454L124.403 447.277L128.842 444.454C129.203 444.224 129.656 444.203 130.034 444.391L130.145 444.454L134.581 447.277L139.016 444.454C139.378 444.224 139.831 444.203 140.209 444.391L140.32 444.455L145.403 447.692C145.969 448.052 146.136 448.802 145.776 449.368C145.437 449.899 144.752 450.078 144.201 449.797L144.1 449.739L139.666 446.917L135.233 449.739C134.871 449.97 134.419 449.991 134.041 449.802L133.929 449.739L129.493 446.916L125.056 449.74C124.694 449.97 124.242 449.99 123.864 449.802L123.752 449.739L119.315 446.916L114.877 449.74C114.516 449.97 114.063 449.99 113.685 449.802L113.574 449.739L109.138 446.916L104.698 449.74C104.337 449.97 103.885 449.99 103.507 449.802L103.396 449.74L98.9516 446.916L94.5079 449.74C93.9753 450.078 93.2794 449.95 92.8998 449.462L92.8318 449.366C92.4936 448.834 92.6222 448.138 93.1102 447.758L93.2057 447.691L98.301 444.454Z" fill="black"/>
</svg>
